TITLE ""
FILE "DISC2Track11.mp3" MP3
  TRACK 01 AUDIO
    TITLE "DISC2Track11_01"
    INDEX 01 00:00:00
  TRACK 02 AUDIO
    TITLE "DISC2Track11_02"
    INDEX 01 00:01:57
  TRACK 03 AUDIO
    TITLE "DISC2Track11_03"
    INDEX 01 00:01:72
  TRACK 04 AUDIO
    TITLE "DISC2Track11_04"
    INDEX 01 00:05:41
  TRACK 05 AUDIO
    TITLE "DISC2Track11_05"
    INDEX 01 00:09:25
  TRACK 06 AUDIO
    TITLE "DISC2Track11_06"
    INDEX 01 00:12:51
  TRACK 07 AUDIO
    TITLE "DISC2Track11_07"
    INDEX 01 00:12:64
  TRACK 08 AUDIO
    TITLE "DISC2Track11_08"
    INDEX 01 00:16:49
  TRACK 09 AUDIO
    TITLE "DISC2Track11_09"
    INDEX 01 00:20:31
  TRACK 10 AUDIO
    TITLE "DISC2Track11_10"
    INDEX 01 00:23:51
  TRACK 11 AUDIO
    TITLE "DISC2Track11_11"
    INDEX 01 00:23:68
  TRACK 12 AUDIO
    TITLE "DISC2Track11_12"
    INDEX 01 00:27:21
  TRACK 13 AUDIO
    TITLE "DISC2Track11_13"
    INDEX 01 00:30:35
  TRACK 14 AUDIO
    TITLE "DISC2Track11_14"
    INDEX 01 00:33:16
  TRACK 15 AUDIO
    TITLE "DISC2Track11_15"
    INDEX 01 00:33:29
  TRACK 16 AUDIO
    TITLE "DISC2Track11_16"
    INDEX 01 00:36:71
  TRACK 17 AUDIO
    TITLE "DISC2Track11_17"
    INDEX 01 00:39:63
  TRACK 18 AUDIO
    TITLE "DISC2Track11_18"
    INDEX 01 00:42:28
  TRACK 19 AUDIO
    TITLE "DISC2Track11_19"
    INDEX 01 00:42:42
  TRACK 20 AUDIO
    TITLE "DISC2Track11_20"
    INDEX 01 00:45:44
  TRACK 21 AUDIO
    TITLE "DISC2Track11_21"
    INDEX 01 00:48:39
  TRACK 22 AUDIO
    TITLE "DISC2Track11_22"
    INDEX 01 00:51:06
  TRACK 23 AUDIO
    TITLE "DISC2Track11_23"
    INDEX 01 00:51:21
  TRACK 24 AUDIO
    TITLE "DISC2Track11_24"
    INDEX 01 00:55:70
  TRACK 25 AUDIO
    TITLE "DISC2Track11_25"
    INDEX 01 00:58:67
  TRACK 26 AUDIO
    TITLE "DISC2Track11_26"
    INDEX 01 01:01:28
  TRACK 27 AUDIO
    TITLE "DISC2Track11_27"
    INDEX 01 01:01:41
  TRACK 28 AUDIO
    TITLE "DISC2Track11_28"
    INDEX 01 01:05:25
  TRACK 29 AUDIO
    TITLE "DISC2Track11_29"
    INDEX 01 01:09:62
  TRACK 30 AUDIO
    TITLE "DISC2Track11_30"
    INDEX 01 01:13:66
  TRACK 31 AUDIO
    TITLE "DISC2Track11_31"
    INDEX 01 01:14:07
  TRACK 32 AUDIO
    TITLE "DISC2Track11_32"
    INDEX 01 01:17:07
  TRACK 33 AUDIO
    TITLE "DISC2Track11_33"
    INDEX 01 01:20:07
  TRACK 34 AUDIO
    TITLE "DISC2Track11_34"
    INDEX 01 01:22:47
  TRACK 35 AUDIO
    TITLE "DISC2Track11_35"
    INDEX 01 01:22:63
  TRACK 36 AUDIO
    TITLE "DISC2Track11_36"
    INDEX 01 01:25:69
  TRACK 37 AUDIO
    TITLE "DISC2Track11_37"
    INDEX 01 01:28:48
  TRACK 38 AUDIO
    TITLE "DISC2Track11_38"
    INDEX 01 01:30:57
  TRACK 39 AUDIO
    TITLE "DISC2Track11_39"
    INDEX 01 01:31:05
  TRACK 40 AUDIO
    TITLE "DISC2Track11_40"
    INDEX 01 01:35:25
  TRACK 41 AUDIO
    TITLE "DISC2Track11_41"
    INDEX 01 01:38:64
  TRACK 42 AUDIO
    TITLE "DISC2Track11_42"
    INDEX 01 01:42:01
